<svg xmlns="http://www.w3.org/2000/svg" width="1024" height="1024" viewBox="0 0 1024 1024">
<defs>
<filter id="b8" x="-50%" y="-50%" width="200%" height="200%"><feGaussianBlur stdDeviation="8"/></filter>
<filter id="b20" x="-50%" y="-50%" width="200%" height="200%"><feGaussianBlur stdDeviation="20"/></filter>
<filter id="b40" x="-50%" y="-50%" width="200%" height="200%"><feGaussianBlur stdDeviation="40"/></filter>
<filter id="b90" x="-80%" y="-80%" width="260%" height="260%"><feGaussianBlur stdDeviation="90"/></filter>
<filter id="drop" x="-30%" y="-30%" width="160%" height="160%"><feGaussianBlur in="SourceAlpha" stdDeviation="22"/><feOffset dy="26"/><feComponentTransfer><feFuncA type="linear" slope="0.45"/></feComponentTransfer><feMerge><feMergeNode/><feMergeNode in="SourceGraphic"/></feMerge></filter>
<filter id="grain"><feTurbulence type="fractalNoise" baseFrequency="0.9" numOctaves="2" stitchTiles="stitch"/><feColorMatrix values="0 0 0 0 1  0 0 0 0 1  0 0 0 0 1  0 0 0 0.035 0"/></filter>

  <radialGradient id="bg" cx="0.5" cy="0.25" r="0.9"><stop offset="0" stop-color="#2A1170"/><stop offset="0.55" stop-color="#120A3A"/><stop offset="1" stop-color="#05051A"/></radialGradient>
  <linearGradient id="statg" x1="0" y1="0" x2="1" y2="1"><stop offset="0" stop-color="#5EEAFF"/><stop offset="1" stop-color="#8B5CF6"/></linearGradient>
  
  <linearGradient id="gfo" x1="0" y1="0" x2="0.6" y2="1"><stop offset="0" stop-color="#ffffff" stop-opacity="0.16"/><stop offset="1" stop-color="#ffffff" stop-opacity="0.03"/></linearGradient>
  <linearGradient id="geo" x1="0" y1="0" x2="1" y2="1"><stop offset="0" stop-color="#fff" stop-opacity="0.9"/><stop offset="0.45" stop-color="#fff" stop-opacity="0.08"/><stop offset="1" stop-color="#fff" stop-opacity="0.49500000000000005"/></linearGradient>
  <clipPath id="gco"><path d="M512.0,230.0L771.8,380.0L771.8,680.0L512.0,830.0L252.2,680.0L252.2,380.0Z"/></clipPath>
  
  <linearGradient id="gfs" x1="0" y1="0" x2="0.6" y2="1"><stop offset="0" stop-color="#9FE9FF" stop-opacity="0.55"/><stop offset="1" stop-color="#9FE9FF" stop-opacity="0.18"/></linearGradient>
  <linearGradient id="ges" x1="0" y1="0" x2="1" y2="1"><stop offset="0" stop-color="#fff" stop-opacity="0.9"/><stop offset="0.45" stop-color="#fff" stop-opacity="0.08"/><stop offset="1" stop-color="#fff" stop-opacity="0.49500000000000005"/></linearGradient>
  <clipPath id="gcs"><path d="M512.0,236.0L735.4,401.0L678.3,626.0L512.0,764.0L382.1,605.0L278.2,395.0Z"/></clipPath>
</defs>

  <rect width="1024" height="1024" fill="url(#bg)"/>
  <circle cx="380" cy="420" r="260" fill="#7C3AED" opacity=".55" filter="url(#b90)"/>
  <circle cx="680" cy="660" r="240" fill="#06B6D4" opacity=".45" filter="url(#b90)"/>
  
  <path d="M512.0,230.0L771.8,380.0L771.8,680.0L512.0,830.0L252.2,680.0L252.2,380.0Z" fill="url(#gfo)"/>
  <g clip-path="url(#gco)">
    <path d="M512.0,230.0L771.8,380.0L771.8,680.0L512.0,830.0L252.2,680.0L252.2,380.0Z" fill="none" stroke="#fff" stroke-opacity="0.35" stroke-width="18" filter="url(#b8)"/>
  </g>
  <path d="M512.0,230.0L771.8,380.0L771.8,680.0L512.0,830.0L252.2,680.0L252.2,380.0Z" fill="none" stroke="url(#geo)" stroke-width="5"/>
  <path d="M512.0,344.0L673.1,437.0L673.1,623.0L512.0,716.0L350.9,623.0L350.9,437.0Z" fill="none" stroke="#fff" stroke-opacity=".14" stroke-width="4"/>
  <line x1="512" y1="530" x2="512" y2="230" stroke="#fff" stroke-opacity=".1" stroke-width="4"/><line x1="512" y1="530" x2="771.8076211353316" y2="380" stroke="#fff" stroke-opacity=".1" stroke-width="4"/><line x1="512" y1="530" x2="771.8076211353316" y2="680" stroke="#fff" stroke-opacity=".1" stroke-width="4"/><line x1="512" y1="530" x2="512" y2="830" stroke="#fff" stroke-opacity=".1" stroke-width="4"/><line x1="512" y1="530" x2="252.19237886466846" y2="680.0000000000001" stroke="#fff" stroke-opacity=".1" stroke-width="4"/><line x1="512" y1="530" x2="252.1923788646684" y2="380" stroke="#fff" stroke-opacity=".1" stroke-width="4"/>
  <path d="M512.0,236.0L735.4,401.0L678.3,626.0L512.0,764.0L382.1,605.0L278.2,395.0Z" fill="url(#statg)" opacity=".9" filter="url(#b40)"/>
  <path d="M512.0,236.0L735.4,401.0L678.3,626.0L512.0,764.0L382.1,605.0L278.2,395.0Z" fill="url(#statg)" opacity=".85"/>
  
  <path d="M512.0,236.0L735.4,401.0L678.3,626.0L512.0,764.0L382.1,605.0L278.2,395.0Z" fill="url(#gfs)"/>
  <g clip-path="url(#gcs)">
    <path d="M512.0,236.0L735.4,401.0L678.3,626.0L512.0,764.0L382.1,605.0L278.2,395.0Z" fill="none" stroke="#fff" stroke-opacity="0.35" stroke-width="18" filter="url(#b8)"/>
  </g>
  <path d="M512.0,236.0L735.4,401.0L678.3,626.0L512.0,764.0L382.1,605.0L278.2,395.0Z" fill="none" stroke="url(#ges)" stroke-width="5"/>
  <circle cx="512" cy="236" r="26" fill="#A5F3FF" filter="url(#b20)"/><circle cx="512" cy="236" r="14" fill="#fff"/><circle cx="735.4345541763852" cy="401" r="26" fill="#A5F3FF" filter="url(#b20)"/><circle cx="735.4345541763852" cy="401" r="14" fill="#fff"/><circle cx="678.2768775266122" cy="626" r="26" fill="#A5F3FF" filter="url(#b20)"/><circle cx="678.2768775266122" cy="626" r="14" fill="#fff"/><circle cx="512" cy="764" r="26" fill="#A5F3FF" filter="url(#b20)"/><circle cx="512" cy="764" r="14" fill="#fff"/><circle cx="382.0961894323342" cy="605" r="26" fill="#A5F3FF" filter="url(#b20)"/><circle cx="382.0961894323342" cy="605" r="14" fill="#fff"/><circle cx="278.17314097820156" cy="395" r="26" fill="#A5F3FF" filter="url(#b20)"/><circle cx="278.17314097820156" cy="395" r="14" fill="#fff"/>
<rect width="1024" height="1024" filter="url(#grain)"/>
</svg>