<svg xmlns="http://www.w3.org/2000/svg" width="1024" height="1024" viewBox="0 0 1024 1024">
<defs>
<filter id="b8" x="-50%" y="-50%" width="200%" height="200%"><feGaussianBlur stdDeviation="8"/></filter>
<filter id="b20" x="-50%" y="-50%" width="200%" height="200%"><feGaussianBlur stdDeviation="20"/></filter>
<filter id="b40" x="-50%" y="-50%" width="200%" height="200%"><feGaussianBlur stdDeviation="40"/></filter>
<filter id="b90" x="-80%" y="-80%" width="260%" height="260%"><feGaussianBlur stdDeviation="90"/></filter>
<filter id="drop" x="-30%" y="-30%" width="160%" height="160%"><feGaussianBlur in="SourceAlpha" stdDeviation="22"/><feOffset dy="26"/><feComponentTransfer><feFuncA type="linear" slope="0.45"/></feComponentTransfer><feMerge><feMergeNode/><feMergeNode in="SourceGraphic"/></feMerge></filter>
<filter id="grain"><feTurbulence type="fractalNoise" baseFrequency="0.9" numOctaves="2" stitchTiles="stitch"/><feColorMatrix values="0 0 0 0 1  0 0 0 0 1  0 0 0 0 1  0 0 0 0.035 0"/></filter>

  <radialGradient id="bg" cx=".3" cy=".1" r="1"><stop offset="0" stop-color="#1E2A8A"/><stop offset=".55" stop-color="#0A0F3D"/><stop offset="1" stop-color="#03051A"/></radialGradient>
  
  <linearGradient id="gfb0" x1="0" y1="0" x2="0.6" y2="1"><stop offset="0" stop-color="#93C5FD" stop-opacity="0.45"/><stop offset="1" stop-color="#93C5FD" stop-opacity="0.1"/></linearGradient>
  <linearGradient id="geb0" x1="0" y1="0" x2="1" y2="1"><stop offset="0" stop-color="#fff" stop-opacity="0.9"/><stop offset="0.45" stop-color="#fff" stop-opacity="0.08"/><stop offset="1" stop-color="#fff" stop-opacity="0.49500000000000005"/></linearGradient>
  <clipPath id="gcb0"><path d="M290,560 H380 Q420,560 420,600 V730 Q420,770 380,770 H290 Q250,770 250,730 V600 Q250,560 290,560 Z"/></clipPath>
  <linearGradient id="gfb1" x1="0" y1="0" x2="0.6" y2="1"><stop offset="0" stop-color="#A5B4FC" stop-opacity="0.55"/><stop offset="1" stop-color="#A5B4FC" stop-opacity="0.1"/></linearGradient>
  <linearGradient id="geb1" x1="0" y1="0" x2="1" y2="1"><stop offset="0" stop-color="#fff" stop-opacity="0.9"/><stop offset="0.45" stop-color="#fff" stop-opacity="0.08"/><stop offset="1" stop-color="#fff" stop-opacity="0.49500000000000005"/></linearGradient>
  <clipPath id="gcb1"><path d="M467,430 H557 Q597,430 597,470 V730 Q597,770 557,770 H467 Q427,770 427,730 V470 Q427,430 467,430 Z"/></clipPath>
  <linearGradient id="gfb2" x1="0" y1="0" x2="0.6" y2="1"><stop offset="0" stop-color="#C4B5FD" stop-opacity="0.65"/><stop offset="1" stop-color="#C4B5FD" stop-opacity="0.1"/></linearGradient>
  <linearGradient id="geb2" x1="0" y1="0" x2="1" y2="1"><stop offset="0" stop-color="#fff" stop-opacity="0.9"/><stop offset="0.45" stop-color="#fff" stop-opacity="0.08"/><stop offset="1" stop-color="#fff" stop-opacity="0.49500000000000005"/></linearGradient>
  <clipPath id="gcb2"><path d="M644,290 H734 Q774,290 774,330 V730 Q774,770 734,770 H644 Q604,770 604,730 V330 Q604,290 644,290 Z"/></clipPath>
</defs>

  <rect width="1024" height="1024" fill="url(#bg)"/>
  <circle cx="690" cy="330" r="230" fill="#6366F1" opacity=".6" filter="url(#b90)"/>
  <circle cx="300" cy="760" r="220" fill="#0EA5E9" opacity=".4" filter="url(#b90)"/>
  
  <path d="M290,560 H380 Q420,560 420,600 V730 Q420,770 380,770 H290 Q250,770 250,730 V600 Q250,560 290,560 Z" fill="url(#gfb0)"/>
  <g clip-path="url(#gcb0)">
    <path d="M290,560 H380 Q420,560 420,600 V730 Q420,770 380,770 H290 Q250,770 250,730 V600 Q250,560 290,560 Z" fill="none" stroke="#fff" stroke-opacity="0.35" stroke-width="18" filter="url(#b8)"/>
  </g>
  <path d="M290,560 H380 Q420,560 420,600 V730 Q420,770 380,770 H290 Q250,770 250,730 V600 Q250,560 290,560 Z" fill="none" stroke="url(#geb0)" stroke-width="5"/>
  <path d="M467,430 H557 Q597,430 597,470 V730 Q597,770 557,770 H467 Q427,770 427,730 V470 Q427,430 467,430 Z" fill="url(#gfb1)"/>
  <g clip-path="url(#gcb1)">
    <path d="M467,430 H557 Q597,430 597,470 V730 Q597,770 557,770 H467 Q427,770 427,730 V470 Q427,430 467,430 Z" fill="none" stroke="#fff" stroke-opacity="0.35" stroke-width="18" filter="url(#b8)"/>
  </g>
  <path d="M467,430 H557 Q597,430 597,470 V730 Q597,770 557,770 H467 Q427,770 427,730 V470 Q427,430 467,430 Z" fill="none" stroke="url(#geb1)" stroke-width="5"/>
  <path d="M644,290 H734 Q774,290 774,330 V730 Q774,770 734,770 H644 Q604,770 604,730 V330 Q604,290 644,290 Z" fill="url(#gfb2)"/>
  <g clip-path="url(#gcb2)">
    <path d="M644,290 H734 Q774,290 774,330 V730 Q774,770 734,770 H644 Q604,770 604,730 V330 Q604,290 644,290 Z" fill="none" stroke="#fff" stroke-opacity="0.35" stroke-width="18" filter="url(#b8)"/>
  </g>
  <path d="M644,290 H734 Q774,290 774,330 V730 Q774,770 734,770 H644 Q604,770 604,730 V330 Q604,290 644,290 Z" fill="none" stroke="url(#geb2)" stroke-width="5"/>
  <circle cx="689" cy="200" r="80" fill="#A5B4FC" filter="url(#b40)"/>
  <circle cx="689" cy="200" r="44" fill="#fff"/>
<rect width="1024" height="1024" filter="url(#grain)"/>
</svg>