<svg xmlns="http://www.w3.org/2000/svg" width="1024" height="1024" viewBox="0 0 1024 1024">
<defs>
<filter id="b8" x="-50%" y="-50%" width="200%" height="200%"><feGaussianBlur stdDeviation="8"/></filter>
<filter id="b20" x="-50%" y="-50%" width="200%" height="200%"><feGaussianBlur stdDeviation="20"/></filter>
<filter id="b40" x="-50%" y="-50%" width="200%" height="200%"><feGaussianBlur stdDeviation="40"/></filter>
<filter id="b90" x="-80%" y="-80%" width="260%" height="260%"><feGaussianBlur stdDeviation="90"/></filter>
<filter id="drop" x="-30%" y="-30%" width="160%" height="160%"><feGaussianBlur in="SourceAlpha" stdDeviation="22"/><feOffset dy="26"/><feComponentTransfer><feFuncA type="linear" slope="0.45"/></feComponentTransfer><feMerge><feMergeNode/><feMergeNode in="SourceGraphic"/></feMerge></filter>
<filter id="grain"><feTurbulence type="fractalNoise" baseFrequency="0.9" numOctaves="2" stitchTiles="stitch"/><feColorMatrix values="0 0 0 0 1  0 0 0 0 1  0 0 0 0 1  0 0 0 0.035 0"/></filter>

  <linearGradient id="bg" x1="0" y1="0" x2="1" y2="1"><stop offset="0" stop-color="#0B3B2E"/><stop offset="1" stop-color="#03130F"/></linearGradient>
  
  <linearGradient id="gfp0" x1="0" y1="0" x2="0.6" y2="1"><stop offset="0" stop-color="#34D399" stop-opacity="0.4"/><stop offset="1" stop-color="#34D399" stop-opacity="0.12"/></linearGradient>
  <linearGradient id="gep0" x1="0" y1="0" x2="1" y2="1"><stop offset="0" stop-color="#fff" stop-opacity="0.9"/><stop offset="0.45" stop-color="#fff" stop-opacity="0.08"/><stop offset="1" stop-color="#fff" stop-opacity="0.49500000000000005"/></linearGradient>
  <clipPath id="gcp0"><path d="M512,520 L780,650 L512,780 L244,650 Z"/></clipPath>
  <linearGradient id="gfp1" x1="0" y1="0" x2="0.6" y2="1"><stop offset="0" stop-color="#6EE7B7" stop-opacity="0.55"/><stop offset="1" stop-color="#6EE7B7" stop-opacity="0.12"/></linearGradient>
  <linearGradient id="gep1" x1="0" y1="0" x2="1" y2="1"><stop offset="0" stop-color="#fff" stop-opacity="0.9"/><stop offset="0.45" stop-color="#fff" stop-opacity="0.08"/><stop offset="1" stop-color="#fff" stop-opacity="0.49500000000000005"/></linearGradient>
  <clipPath id="gcp1"><path d="M512,390 L780,520 L512,650 L244,520 Z"/></clipPath>
  <linearGradient id="gfp2" x1="0" y1="0" x2="0.6" y2="1"><stop offset="0" stop-color="#ECFDF5" stop-opacity="0.7"/><stop offset="1" stop-color="#ECFDF5" stop-opacity="0.12"/></linearGradient>
  <linearGradient id="gep2" x1="0" y1="0" x2="1" y2="1"><stop offset="0" stop-color="#fff" stop-opacity="0.9"/><stop offset="0.45" stop-color="#fff" stop-opacity="0.08"/><stop offset="1" stop-color="#fff" stop-opacity="0.49500000000000005"/></linearGradient>
  <clipPath id="gcp2"><path d="M512,260 L780,390 L512,520 L244,390 Z"/></clipPath>
</defs>

  <rect width="1024" height="1024" fill="url(#bg)"/>
  <circle cx="512" cy="460" r="300" fill="#10B981" opacity=".45" filter="url(#b90)"/>
  <path d="M512,520 L780,650 L512,780 L244,650 Z" fill="#000" opacity=".25" transform="translate(0,24)" filter="url(#b20)"/>
  <path d="M512,520 L780,650 L512,780 L244,650 Z" fill="url(#gfp0)"/>
  <g clip-path="url(#gcp0)">
    <path d="M512,520 L780,650 L512,780 L244,650 Z" fill="none" stroke="#fff" stroke-opacity="0.35" stroke-width="18" filter="url(#b8)"/>
  </g>
  <path d="M512,520 L780,650 L512,780 L244,650 Z" fill="none" stroke="url(#gep0)" stroke-width="5"/><path d="M512,390 L780,520 L512,650 L244,520 Z" fill="#000" opacity=".25" transform="translate(0,24)" filter="url(#b20)"/>
  <path d="M512,390 L780,520 L512,650 L244,520 Z" fill="url(#gfp1)"/>
  <g clip-path="url(#gcp1)">
    <path d="M512,390 L780,520 L512,650 L244,520 Z" fill="none" stroke="#fff" stroke-opacity="0.35" stroke-width="18" filter="url(#b8)"/>
  </g>
  <path d="M512,390 L780,520 L512,650 L244,520 Z" fill="none" stroke="url(#gep1)" stroke-width="5"/><path d="M512,260 L780,390 L512,520 L244,390 Z" fill="#000" opacity=".25" transform="translate(0,24)" filter="url(#b20)"/>
  <path d="M512,260 L780,390 L512,520 L244,390 Z" fill="url(#gfp2)"/>
  <g clip-path="url(#gcp2)">
    <path d="M512,260 L780,390 L512,520 L244,390 Z" fill="none" stroke="#fff" stroke-opacity="0.35" stroke-width="18" filter="url(#b8)"/>
  </g>
  <path d="M512,260 L780,390 L512,520 L244,390 Z" fill="none" stroke="url(#gep2)" stroke-width="5"/>
  <circle cx="512" cy="390" r="40" fill="#fff" opacity=".9" filter="url(#b8)"/>
<rect width="1024" height="1024" filter="url(#grain)"/>
</svg>